<?xml version="1.0" standalone="no"?>
<!DOCTYPE svg PUBLIC "-//W3C//DTD SVG 20010904//EN"
 "http://www.w3.org/TR/2001/REC-SVG-20010904/DTD/svg10.dtd">
<svg version="1.0" xmlns="http://www.w3.org/2000/svg"
 width="66.000000pt" height="66.000000pt" viewBox="0 0 66.000000 66.000000"
 preserveAspectRatio="xMidYMid meet">

<g transform="translate(0.000000,66.000000) scale(0.100000,-0.100000)"
fill="#16462E" stroke="none">
<path d="M206 625 c-70 -29 -128 -81 -164 -150 -24 -44 -27 -61 -27 -145 0
-84 3 -101 27 -145 56 -106 149 -166 268 -173 102 -6 175 22 246 92 70 70 98
144 92 243 -14 225 -235 363 -442 278z m239 -50 c168 -81 206 -300 76 -434
-109 -112 -297 -107 -397 11 -50 60 -67 113 -62 194 7 113 72 201 173 239 54
19 159 15 210 -10z"/>
<path d="M365 360 l-79 -80 -37 36 c-36 35 -69 41 -69 14 0 -15 90 -110 105
-110 18 0 197 188 193 202 -10 29 -37 14 -113 -62z"/>
</g>
</svg>
